<svg width="29" height="28" viewBox="0 0 29 28" fill="none" xmlns="http://www.w3.org/2000/svg">
<g id="Icon / Add Icon Filled">
<path id="Rectangle 1427 (Stroke)" fill-rule="evenodd" clip-rule="evenodd" d="M20.9167 3.85H8.08333C6.02147 3.85 4.35 5.52147 4.35 7.58333V20.4167C4.35 22.4785 6.02147 24.15 8.08333 24.15H20.9167C22.9785 24.15 24.65 22.4785 24.65 20.4167V7.58333C24.65 5.52147 22.9785 3.85 20.9167 3.85ZM8.08333 1.75C4.86167 1.75 2.25 4.36167 2.25 7.58333V20.4167C2.25 23.6383 4.86167 26.25 8.08333 26.25H20.9167C24.1383 26.25 26.75 23.6383 26.75 20.4167V7.58333C26.75 4.36167 24.1383 1.75 20.9167 1.75H8.08333Z" fill="#FAFAFA"/>
<path id="Union" fill-rule="evenodd" clip-rule="evenodd" d="M14.5 7.65625C14.0393 7.65625 13.6658 8.02972 13.6658 8.49041V13.1658H8.99041C8.52972 13.1658 8.15625 13.5393 8.15625 14C8.15625 14.4607 8.52972 14.8342 8.99041 14.8342H13.6658V19.5096C13.6658 19.9703 14.0393 20.3438 14.5 20.3438C14.9607 20.3438 15.3342 19.9703 15.3342 19.5096V14.8342H20.0096C20.4703 14.8342 20.8438 14.4607 20.8438 14C20.8438 13.5393 20.4703 13.1658 20.0096 13.1658H15.3342V8.49041C15.3342 8.02972 14.9607 7.65625 14.5 7.65625Z" fill="#FAFAFA"/>
</g>
</svg>
