<svg width="29" height="28" viewBox="0 0 29 28" fill="none" xmlns="http://www.w3.org/2000/svg">
<g id="Icon / Home">
<path id="Vector" d="M14.394 2.87415C14.4341 2.83155 14.4746 2.82122 14.5 2.82122C14.5254 2.82122 14.566 2.83155 14.6061 2.87415L24.7614 13.6518C25.1116 14.0234 25.3142 14.5328 25.3142 15.0764V23.451C25.3142 23.9685 24.9276 24.3038 24.5599 24.3038H18.7372C18.38 24.3038 18.004 23.9798 18.004 23.4735V18.4082C18.004 16.4326 16.4815 14.7418 14.5 14.7418C12.5185 14.7418 10.9961 16.4326 10.9961 18.4082V23.4735C10.9961 23.9798 10.6201 24.3038 10.2629 24.3038H4.44019C4.07245 24.3038 3.68584 23.9685 3.68584 23.451V15.0764C3.68584 14.5328 3.88852 14.0234 4.23865 13.6518L14.394 2.87415Z" stroke="#FAFAFA" stroke-width="1.70493"/>
</g>
</svg>
