<svg width="29" height="28" viewBox="0 0 29 28" fill="none" xmlns="http://www.w3.org/2000/svg">
<g id="u:user">
<path id="Vector" d="M18.8283 14.8286C19.9721 13.9287 20.807 12.6946 21.2168 11.2982C21.6266 9.90168 21.5909 8.4122 21.1147 7.03694C20.6386 5.66168 19.7456 4.46902 18.5601 3.62489C17.3745 2.78077 15.9554 2.32715 14.5 2.32715C13.0446 2.32715 11.6255 2.78077 10.4399 3.62489C9.25437 4.46902 8.3614 5.66168 7.88524 7.03694C7.40909 8.4122 7.37343 9.90168 7.78322 11.2982C8.19301 12.6946 9.02787 13.9287 10.1717 14.8286C8.21175 15.6138 6.50166 16.9161 5.2237 18.5968C3.94574 20.2775 3.14782 22.2734 2.915 24.3719C2.89814 24.5251 2.91163 24.6801 2.95469 24.8281C2.99775 24.9761 3.06954 25.1142 3.16596 25.2344C3.36068 25.4773 3.64391 25.6329 3.95333 25.6669C4.26275 25.7009 4.57302 25.6107 4.81588 25.4159C5.05874 25.2212 5.21429 24.938 5.24833 24.6286C5.50451 22.3479 6.59196 20.2417 8.30292 18.7122C10.0139 17.1826 12.2284 16.3371 14.5233 16.3371C16.8183 16.3371 19.0328 17.1826 20.7437 18.7122C22.4547 20.2417 23.5421 22.3479 23.7983 24.6286C23.8301 24.9152 23.9668 25.18 24.1823 25.3717C24.3977 25.5635 24.6766 25.6686 24.965 25.6669H25.0933C25.3992 25.6317 25.6787 25.4771 25.871 25.2367C26.0633 24.9963 26.1528 24.6896 26.12 24.3836C25.8861 22.2791 25.0839 20.278 23.7993 18.5948C22.5148 16.9116 20.7964 15.6096 18.8283 14.8286ZM14.5 14.0002C13.577 14.0002 12.6748 13.7265 11.9073 13.2138C11.1399 12.701 10.5418 11.9721 10.1886 11.1194C9.83535 10.2667 9.74293 9.32838 9.923 8.42314C10.1031 7.51789 10.5475 6.68637 11.2002 6.03373C11.8528 5.38108 12.6843 4.93663 13.5896 4.75656C14.4948 4.5765 15.4331 4.66891 16.2859 5.02212C17.1386 5.37533 17.8674 5.97347 18.3802 6.7409C18.893 7.50833 19.1667 8.41058 19.1667 9.33356C19.1667 10.5712 18.675 11.7582 17.7998 12.6334C16.9247 13.5086 15.7377 14.0002 14.5 14.0002Z" fill="white"/>
</g>
</svg>
